<svg width="158" height="181" viewBox="0 0 158 181" fill="none" xmlns="http://www.w3.org/2000/svg">
<path d="M78.492 0C89.8382 0 100.338 2.28792 109.99 6.86377C119.812 11.4396 128.28 17.7949 135.392 25.9298C142.505 34.0646 148.009 43.7247 151.904 54.9101C155.968 66.0955 158 78.2978 158 91.5169C158 104.397 156.053 116.345 152.158 127.361C148.263 138.377 142.759 147.868 135.646 155.833C128.703 163.629 120.405 169.815 110.752 174.39C101.269 178.797 90.7696 181 79.254 181C67.7385 181 57.1543 178.797 47.5016 174.39C37.8489 169.815 29.4662 163.544 22.3537 155.579C15.4105 147.444 9.90675 137.868 5.84244 126.853C1.94748 115.837 0 103.804 0 90.7542C0 77.7046 1.94748 65.6718 5.84244 54.6559C9.90675 43.4705 15.4105 33.8951 22.3537 25.9298C29.2969 17.7949 37.5102 11.4396 46.9936 6.86377C56.6463 2.28792 67.1458 0 78.492 0ZM78.492 4.83005C69.0086 4.83005 60.3719 6.86376 52.582 10.9312C44.7921 14.9986 38.1029 20.8455 32.5145 28.4719C27.0954 35.9288 22.8617 44.911 19.8135 55.4185C16.7653 65.926 15.2412 77.5351 15.2412 90.2458C15.2412 103.126 16.7653 114.82 19.8135 125.327C22.8617 135.835 27.1801 144.902 32.7685 152.528C38.3569 159.985 45.0461 165.832 52.836 170.069C60.7953 174.136 69.6013 176.17 79.254 176.17C88.9068 176.17 97.6281 174.136 105.418 170.069C113.208 166.001 119.812 160.324 125.232 153.037C130.82 145.58 135.138 136.597 138.186 126.09C141.235 115.582 142.759 103.973 142.759 91.2627C142.759 78.3825 141.235 66.6887 138.186 56.1812C135.138 45.5042 130.735 36.3525 124.977 28.7261C119.389 21.0997 112.615 15.2528 104.656 11.1854C96.866 6.9485 88.1447 4.83005 78.492 4.83005Z" fill="#CC9F75"/>
<path d="M61.0983 72.2173C61.0983 71.4246 60.9895 70.8418 60.7719 70.4688C60.5543 70.0802 60.1191 69.8859 59.4663 69.8859H59V69.4197H68.9317C70.2529 69.4197 70.9134 70.0414 70.9134 71.2848V73.0333H70.4471C70.4471 71.2459 69.4757 70.3522 67.5329 70.3522H63.1965V76.4138H69.4913V77.3464H63.1965V83.8743H67.2764C68.3489 83.8743 69.1882 83.68 69.7943 83.2914C70.4005 82.9029 70.8823 82.2423 71.2398 81.3098L71.7061 81.4263L70.8901 83.6411C70.6103 84.4183 70.0275 84.8068 69.1416 84.8068H61.0983V72.2173Z" fill="#CC9F75"/>
<path d="M78.9531 85.2032C78.0982 85.2032 77.2589 85.0866 76.4352 84.8535C75.6114 84.6203 74.9353 84.2862 74.4069 83.851C73.894 83.4158 73.6375 82.9184 73.6375 82.3589V79.8643H74.0571C74.3214 81.4185 74.8343 82.5454 75.5959 83.2448C76.3575 83.9287 77.4066 84.2706 78.7432 84.2706C79.5825 84.2706 80.2975 84.0608 80.8881 83.6411C81.4943 83.2215 81.7974 82.6386 81.7974 81.8926C81.7974 81.2398 81.5953 80.6725 81.1912 80.1907C80.7871 79.7089 80.1343 79.2037 79.2328 78.6753L76.3652 76.9734C75.3705 76.3827 74.6633 75.7844 74.2437 75.1782C73.8396 74.572 73.6375 73.8338 73.6375 72.9634C73.6375 71.7666 74.0494 70.8107 74.8731 70.0958C75.7124 69.3653 76.8082 69 78.1604 69C78.9531 69 79.738 69.1166 80.5151 69.3497C81.2922 69.5673 81.9295 69.8937 82.4268 70.3289C82.9398 70.7485 83.1962 71.2381 83.1962 71.7977V74.2923H82.7766C82.5123 72.738 82.0072 71.6267 81.2612 70.9584C80.5306 70.2745 79.4971 69.9326 78.1604 69.9326C77.4454 69.9326 76.816 70.1502 76.272 70.5853C75.728 71.0205 75.456 71.5878 75.456 72.2873C75.456 72.9245 75.6503 73.453 76.0388 73.8726C76.4429 74.2923 77.1113 74.7819 78.0438 75.3414L80.9114 77.0433C81.9683 77.6805 82.7144 78.2712 83.1496 78.8152C83.5848 79.3592 83.8024 80.0508 83.8024 80.8901C83.8024 82.1957 83.3672 83.2448 82.4968 84.0375C81.6264 84.8146 80.4452 85.2032 78.9531 85.2032Z" fill="#CC9F75"/>
<path d="M90.778 70.3522H88.6797C86.7369 70.3522 85.7655 71.2459 85.7655 73.0333H85.2992V71.2848C85.2992 70.0414 85.9598 69.4197 87.2809 69.4197H98.1219V70.3522H92.8762V84.8068H90.778V70.3522Z" fill="#CC9F75"/>
<path d="M59.7513 111.543V98.7429L57.4306 100.183L57 99.6571L60.7082 96.4571H61.9044V111.543H59.7513Z" fill="#CC9F75"/>
<path d="M69.5526 112C68.3564 112 67.1204 111.771 65.8444 111.314L65.964 110.857C66.9529 111.01 67.9896 111.086 69.0742 111.086C70.4777 111.086 71.5224 110.575 72.2082 109.554C72.91 108.518 73.2609 107.086 73.2609 105.257C72.7824 105.577 72.2561 105.829 71.6819 106.011C71.1237 106.194 70.4538 106.286 69.6723 106.286C68.0454 106.286 66.8413 105.836 66.0597 104.937C65.2782 104.023 64.8875 102.758 64.8875 101.143C64.8875 100.229 65.0788 99.3829 65.4616 98.6057C65.8444 97.8286 66.4266 97.2038 67.2081 96.7314C67.9896 96.2438 68.9306 96 70.0311 96C71.9132 96 73.3007 96.6705 74.1939 98.0114C75.0871 99.3371 75.5337 101.333 75.5337 104C75.5337 106.667 75.0392 108.67 74.0504 110.011C73.0775 111.337 71.5782 112 69.5526 112ZM70.39 105.371C70.9642 105.371 71.4745 105.28 71.9211 105.097C72.3677 104.899 72.8143 104.61 73.2609 104.229C73.2609 101.714 72.9738 99.8705 72.3996 98.6971C71.8254 97.5086 71.0359 96.9143 70.0311 96.9143C69.1539 96.9143 68.4521 97.3333 67.9258 98.1714C67.4154 99.0095 67.1602 100 67.1602 101.143C67.1602 103.962 68.2368 105.371 70.39 105.371Z" fill="#CC9F75"/>
<path d="M82.3791 112C81.1829 112 79.9468 111.771 78.6709 111.314L78.7905 110.857C79.7794 111.01 80.8161 111.086 81.9006 111.086C83.3042 111.086 84.3489 110.575 85.0347 109.554C85.7365 108.518 86.0873 107.086 86.0873 105.257C85.6089 105.577 85.0825 105.829 84.5083 106.011C83.9501 106.194 83.2802 106.286 82.4987 106.286C80.8719 106.286 79.6677 105.836 78.8862 104.937C78.1047 104.023 77.7139 102.758 77.7139 101.143C77.7139 100.229 77.9053 99.3829 78.2881 98.6057C78.6709 97.8286 79.253 97.2038 80.0346 96.7314C80.8161 96.2438 81.7571 96 82.8576 96C84.7396 96 86.1272 96.6705 87.0204 98.0114C87.9135 99.3371 88.3601 101.333 88.3601 104C88.3601 106.667 87.8657 108.67 86.8768 110.011C85.9039 111.337 84.4047 112 82.3791 112ZM83.2164 105.371C83.7906 105.371 84.301 105.28 84.7476 105.097C85.1942 104.899 85.6408 104.61 86.0873 104.229C86.0873 101.714 85.8002 99.8705 85.2261 98.6971C84.6519 97.5086 83.8624 96.9143 82.8576 96.9143C81.9804 96.9143 81.2786 97.3333 80.7523 98.1714C80.2419 99.0095 79.9867 100 79.9867 101.143C79.9867 103.962 81.0633 105.371 83.2164 105.371Z" fill="#CC9F75"/>
<path d="M97.6937 111.543V107.657H90.038V106.743L97.9329 96.4571H99.8468V106.743H102V107.657H99.8468V111.543H97.6937ZM91.4734 106.743H97.6937V98.6514L91.4734 106.743Z" fill="#CC9F75"/>
</svg>
